<svg width="24" height="24" viewBox="0 0 24 24" fill="none" xmlns="http://www.w3.org/2000/svg">
<path fill-rule="evenodd" clip-rule="evenodd" d="M12 0C8.741 0 8.333 0.014 7.053 0.072C4.87477 0.171965 3.1802 0.826036 2.005 2H2V2.005C0.827106 3.17961 0.172894 4.87332 0.073 7.052C0.014 8.333 0 8.741 0 12C0 15.259 0.014 15.668 0.072 16.948C0.171965 19.1262 0.826036 20.8208 2 21.996V22H2.004C3.17865 23.1735 4.8727 23.8281 7.052 23.928C8.333 23.986 8.741 24 12 24C15.259 24 15.668 23.986 16.948 23.928C19.1242 23.828 20.8193 23.174 21.9951 22H22V21.9951C23.1736 20.8205 23.8286 19.1268 23.927 16.948C23.986 15.668 24 15.259 24 12C24 8.741 23.986 8.333 23.928 7.053C23.83 4.87554 23.1755 3.18028 22 2.0045V2H21.9955C20.8207 0.827546 19.1268 0.172851 16.949 0.073C15.668 0.014 15.259 0 12 0ZM16.9648 5.59527C16.9648 4.80027 17.6098 4.15527 18.4058 4.15527C19.2008 4.15527 19.8448 4.80027 19.8448 5.59527C19.8448 6.39027 19.2008 7.03527 18.4058 7.03527C17.6098 7.03527 16.9648 6.39027 16.9648 5.59527ZM12.0042 8C9.79117 8 8 9.79297 8 12C8 14.207 9.79117 16 12.0042 16C14.2103 16 16 14.2097 16 12C16 9.79026 14.2103 8 12.0042 8ZM12.0042 6C8.6875 6 6 8.6875 6 12C6 15.3125 8.6875 18 12.0042 18C15.3167 18 18 15.3125 18 12C18 8.6875 15.3167 6 12.0042 6Z" fill="white"/>
</svg>
