<svg width="24" height="17" viewBox="0 0 24 17" fill="none" xmlns="http://www.w3.org/2000/svg">
<path d="M11.9998 -0.000213623C11.9998 -0.000213623 4.48746 -0.000213623 2.60938 0.499786C1.60115 0.779786 0.770999 1.61994 0.49423 2.65994C0 4.55994 0 8.49979 0 8.49979C0 8.49979 0 12.4596 0.49423 14.3396C0.770999 15.3796 1.58138 16.1999 2.60938 16.4799C4.50723 16.9999 11.9998 16.9998 11.9998 16.9998C11.9998 16.9998 19.5121 16.9998 21.3901 16.4998C22.4181 16.2198 23.2289 15.3999 23.5057 14.3599C23.9999 12.4599 23.9999 8.51971 23.9999 8.51971C23.9999 8.51971 24.0197 4.55994 23.5057 2.65994C23.2289 1.61994 22.4181 0.799708 21.3901 0.519708C19.5121 -0.000291777 11.9998 -0.000213623 11.9998 -0.000213623ZM9.60776 4.85994L15.8548 8.49979L9.60776 12.1396V4.85994Z" fill="white"/>
</svg>
